<svg width="86" height="25" viewBox="0 0 86 25" fill="none" xmlns="http://www.w3.org/2000/svg">
<path d="M3 9.5L12 2.5L21 9.5V20.5C21 21.0304 20.7893 21.5391 20.4142 21.9142C20.0391 22.2893 19.5304 22.5 19 22.5H5C4.46957 22.5 3.96086 22.2893 3.58579 21.9142C3.21071 21.5391 3 21.0304 3 20.5V9.5Z" stroke="black" stroke-width="2" stroke-linecap="round" stroke-linejoin="round"/>
<path d="M9 22.5V12.5H15V22.5" stroke="black" stroke-width="2" stroke-linecap="round" stroke-linejoin="round"/>
<path d="M44.666 18.5V5.9H47.132V18.5H44.666ZM36.368 18.5V5.882L38.834 5.9V18.518L36.368 18.5ZM38.204 13.19V10.922H45.836V13.19H38.204ZM53.756 18.716C52.844 18.716 52.028 18.518 51.308 18.122C50.6 17.714 50.042 17.156 49.634 16.448C49.238 15.74 49.04 14.924 49.04 14C49.04 13.076 49.238 12.26 49.634 11.552C50.03 10.844 50.582 10.292 51.29 9.896C51.998 9.488 52.808 9.284 53.72 9.284C54.644 9.284 55.46 9.488 56.168 9.896C56.876 10.292 57.428 10.844 57.824 11.552C58.22 12.26 58.418 13.076 58.418 14C58.418 14.924 58.22 15.74 57.824 16.448C57.428 17.156 56.876 17.714 56.168 18.122C55.472 18.518 54.668 18.716 53.756 18.716ZM53.756 16.52C54.2 16.52 54.59 16.412 54.926 16.196C55.262 15.98 55.52 15.686 55.7 15.314C55.892 14.93 55.988 14.492 55.988 14C55.988 13.508 55.892 13.076 55.7 12.704C55.508 12.32 55.238 12.02 54.89 11.804C54.554 11.588 54.164 11.48 53.72 11.48C53.288 11.48 52.898 11.588 52.55 11.804C52.214 12.02 51.95 12.32 51.758 12.704C51.566 13.076 51.47 13.508 51.47 14C51.47 14.492 51.566 14.93 51.758 15.314C51.95 15.686 52.22 15.98 52.568 16.196C52.916 16.412 53.312 16.52 53.756 16.52ZM59.985 18.5V9.5H62.217L62.361 11.156V18.5H59.985ZM65.943 18.5V13.892L68.319 13.352V18.5H65.943ZM71.919 18.5V13.892L74.295 13.352V18.5H71.919ZM65.943 13.892C65.943 13.28 65.871 12.806 65.727 12.47C65.595 12.134 65.403 11.894 65.151 11.75C64.899 11.594 64.605 11.516 64.269 11.516C63.657 11.504 63.183 11.69 62.847 12.074C62.523 12.458 62.361 13.028 62.361 13.784H61.569C61.569 12.824 61.707 12.014 61.983 11.354C62.271 10.682 62.667 10.172 63.171 9.824C63.675 9.464 64.269 9.284 64.953 9.284C66.045 9.284 66.879 9.62 67.455 10.292C68.043 10.952 68.331 11.972 68.319 13.352L65.943 13.892ZM71.919 13.892C71.919 13.28 71.847 12.806 71.703 12.47C71.559 12.134 71.361 11.894 71.109 11.75C70.869 11.594 70.575 11.516 70.227 11.516C69.615 11.504 69.141 11.69 68.805 12.074C68.481 12.458 68.319 13.028 68.319 13.784H67.527C67.527 12.824 67.665 12.014 67.941 11.354C68.229 10.682 68.625 10.172 69.129 9.824C69.645 9.464 70.245 9.284 70.929 9.284C72.021 9.284 72.855 9.62 73.431 10.292C74.007 10.952 74.295 11.972 74.295 13.352L71.919 13.892ZM80.26 18.716C79.372 18.716 78.586 18.518 77.902 18.122C77.218 17.714 76.678 17.156 76.282 16.448C75.898 15.74 75.706 14.924 75.706 14C75.706 13.076 75.904 12.26 76.3 11.552C76.708 10.844 77.26 10.292 77.956 9.896C78.664 9.488 79.474 9.284 80.386 9.284C81.166 9.284 81.886 9.494 82.546 9.914C83.218 10.322 83.758 10.928 84.166 11.732C84.574 12.524 84.778 13.49 84.778 14.63H82.366C82.378 13.838 82.294 13.208 82.114 12.74C81.946 12.26 81.706 11.918 81.394 11.714C81.082 11.498 80.716 11.39 80.296 11.39C79.828 11.39 79.432 11.486 79.108 11.678C78.784 11.87 78.538 12.164 78.37 12.56C78.214 12.944 78.136 13.448 78.136 14.072C78.136 14.612 78.244 15.062 78.46 15.422C78.676 15.782 78.964 16.058 79.324 16.25C79.684 16.43 80.08 16.52 80.512 16.52C80.98 16.52 81.358 16.418 81.646 16.214C81.946 16.01 82.174 15.746 82.33 15.422L84.562 16.286C84.31 16.79 83.98 17.228 83.572 17.6C83.176 17.96 82.702 18.236 82.15 18.428C81.598 18.62 80.968 18.716 80.26 18.716ZM77.254 14.63L77.272 12.776H83.608V14.63H77.254Z" fill="black"/>
</svg>
