<svg width="108" height="24" viewBox="0 0 108 24" fill="none" xmlns="http://www.w3.org/2000/svg">
<path d="M12 5V19" stroke="white" stroke-width="2" stroke-linecap="round" stroke-linejoin="round"/>
<path d="M5 12H19" stroke="white" stroke-width="2" stroke-linecap="round" stroke-linejoin="round"/>
<path d="M45.098 18L36.944 6.75L38.942 5.4L47.06 16.596L45.098 18ZM36.368 18V5.4H38.942L38.834 7.578V18.018L36.368 18ZM45.098 18V5.4H47.546V18H45.098ZM54.0159 18.216C53.1279 18.216 52.3419 18.018 51.6579 17.622C50.9739 17.214 50.4339 16.656 50.0379 15.948C49.6539 15.24 49.4619 14.424 49.4619 13.5C49.4619 12.576 49.6599 11.76 50.0559 11.052C50.4639 10.344 51.0159 9.792 51.7119 9.396C52.4199 8.988 53.2299 8.784 54.1419 8.784C54.9219 8.784 55.6419 8.994 56.3019 9.414C56.9739 9.822 57.5139 10.428 57.9219 11.232C58.3299 12.024 58.5339 12.99 58.5339 14.13H56.1219C56.1339 13.338 56.0499 12.708 55.8699 12.24C55.7019 11.76 55.4619 11.418 55.1499 11.214C54.8379 10.998 54.4719 10.89 54.0519 10.89C53.5839 10.89 53.1879 10.986 52.8639 11.178C52.5399 11.37 52.2939 11.664 52.1259 12.06C51.9699 12.444 51.8919 12.948 51.8919 13.572C51.8919 14.112 51.9999 14.562 52.2159 14.922C52.4319 15.282 52.7199 15.558 53.0799 15.75C53.4399 15.93 53.8359 16.02 54.2679 16.02C54.7359 16.02 55.1139 15.918 55.4019 15.714C55.7019 15.51 55.9299 15.246 56.0859 14.922L58.3179 15.786C58.0659 16.29 57.7359 16.728 57.3279 17.1C56.9319 17.46 56.4579 17.736 55.9059 17.928C55.3539 18.12 54.7239 18.216 54.0159 18.216ZM51.0099 14.13L51.0279 12.276H57.3639V14.13H51.0099ZM67.952 18L70.94 9H73.352L70.292 18H67.952ZM61.976 18L64.856 9H66.926L64.082 18H61.976ZM61.742 18L58.682 9H61.094L63.956 18H61.742ZM67.952 18L65.144 9H67.196L70.058 18H67.952ZM78.9363 21.6V9H81.1683L81.3123 10.656V21.6H78.9363ZM84.0303 18.216C83.2743 18.216 82.6323 18.024 82.1043 17.64C81.5883 17.256 81.1923 16.71 80.9163 16.002C80.6403 15.294 80.5023 14.46 80.5023 13.5C80.5023 12.528 80.6403 11.694 80.9163 10.998C81.1923 10.29 81.5883 9.744 82.1043 9.36C82.6323 8.976 83.2743 8.784 84.0303 8.784C84.8583 8.784 85.5723 8.976 86.1723 9.36C86.7843 9.744 87.2583 10.29 87.5943 10.998C87.9303 11.694 88.0983 12.528 88.0983 13.5C88.0983 14.46 87.9303 15.294 87.5943 16.002C87.2583 16.71 86.7843 17.256 86.1723 17.64C85.5723 18.024 84.8583 18.216 84.0303 18.216ZM83.4183 16.038C83.8503 16.038 84.2283 15.93 84.5523 15.714C84.8883 15.498 85.1523 15.198 85.3443 14.814C85.5363 14.43 85.6323 13.992 85.6323 13.5C85.6323 13.008 85.5363 12.57 85.3443 12.186C85.1643 11.802 84.9063 11.508 84.5703 11.304C84.2463 11.088 83.8683 10.98 83.4363 10.98C83.0283 10.98 82.6623 11.088 82.3383 11.304C82.0143 11.52 81.7623 11.82 81.5823 12.204C81.4023 12.576 81.3123 13.008 81.3123 13.5C81.3123 13.992 81.4023 14.43 81.5823 14.814C81.7623 15.198 82.0083 15.498 82.3203 15.714C82.6443 15.93 83.0103 16.038 83.4183 16.038ZM93.8869 18.216C92.9749 18.216 92.1589 18.018 91.4389 17.622C90.7309 17.214 90.1729 16.656 89.7649 15.948C89.3689 15.24 89.1709 14.424 89.1709 13.5C89.1709 12.576 89.3689 11.76 89.7649 11.052C90.1609 10.344 90.7129 9.792 91.4209 9.396C92.1289 8.988 92.9389 8.784 93.8509 8.784C94.7749 8.784 95.5909 8.988 96.2989 9.396C97.0069 9.792 97.5589 10.344 97.9549 11.052C98.3509 11.76 98.5489 12.576 98.5489 13.5C98.5489 14.424 98.3509 15.24 97.9549 15.948C97.5589 16.656 97.0069 17.214 96.2989 17.622C95.6029 18.018 94.7989 18.216 93.8869 18.216ZM93.8869 16.02C94.3309 16.02 94.7209 15.912 95.0569 15.696C95.3929 15.48 95.6509 15.186 95.8309 14.814C96.0229 14.43 96.1189 13.992 96.1189 13.5C96.1189 13.008 96.0229 12.576 95.8309 12.204C95.6389 11.82 95.3689 11.52 95.0209 11.304C94.6849 11.088 94.2949 10.98 93.8509 10.98C93.4189 10.98 93.0289 11.088 92.6809 11.304C92.3449 11.52 92.0809 11.82 91.8889 12.204C91.6969 12.576 91.6009 13.008 91.6009 13.5C91.6009 13.992 91.6969 14.43 91.8889 14.814C92.0809 15.186 92.3509 15.48 92.6989 15.696C93.0469 15.912 93.4429 16.02 93.8869 16.02ZM100.116 18V5.4H102.492V18H100.116ZM104.546 18V5.4H106.922V18H104.546Z" fill="white"/>
</svg>
